# xmcd
#
# Track frame offsets:
# 150
# 28875
# 55765
# 81476
# 105602
# 125005
# 151720
# 178063
# 204435
# 221586
# 244174
#
# Disc length: 3588 seconds
#
#
# Revision: 0
# Processed by: cddbd v1.4PL0 Copyright (c) Steve Scherf et al.
# Submitted via: FreeRIP 2.51 
#
DISCID=980e020b
DTITLE=Faisal Latif - Chupkay Chupkay
DYEAR=2002
DGENRE=Blues
TTITLE0=Chupkay Chupkay
TTITLE1=Mery Shauq
TTITLE2=Chalay Aiyay
TTITLE3=Sub Maya Hai
TTITLE4=Jan-e-Mehfil
TTITLE5=Mohabat Ka
TTITLE6=Eid Kay Din
TTITLE7=Chal Uth Way
TTITLE8=Jo Bhi Kuch
TTITLE9=Kitni Haseen
TTITLE10=Ab Chand Nahi
EXTD=
EXTT0=
EXTT1=
EXTT2=
EXTT3=
EXTT4=
EXTT5=
EXTT6=
EXTT7=
EXTT8=
EXTT9=
EXTT10=
PLAYORDER=
